<?xml version="1.0" encoding="iso-8859-1"?>
<!-- Uploaded to: SVG Repo, www.svgrepo.com, Generator: SVG Repo Mixer Tools -->
<svg height="800px" width="800px" version="1.1" id="Layer_1" xmlns="http://www.w3.org/2000/svg" xmlns:xlink="http://www.w3.org/1999/xlink" 
	 viewBox="0 0 512 512" xml:space="preserve">
<g>
	<path style="fill:#3ABBE6;" d="M394.315,72.367c-8.977,0.427-15.88,8.162-15.88,17.149v169.824c0,6.506,5.275,11.78,11.78,11.78
		h9.83c6.506,0,11.78-5.275,11.78-11.78V89.044C411.826,79.551,403.902,71.911,394.315,72.367z"/>
	<path style="fill:#3ABBE6;" d="M205.097,72.367c-8.977,0.427-15.88,8.162-15.88,17.149v169.824c0,6.506,5.275,11.78,11.78,11.78
		h9.83c6.506,0,11.78-5.275,11.78-11.78V89.044C222.609,79.551,214.685,71.911,205.097,72.367z"/>
	<path style="fill:#3ABBE6;" d="M127.184,72.367c-8.977,0.427-15.88,8.162-15.88,17.149v169.824c0,6.506,5.275,11.78,11.78,11.78
		h9.83c6.506,0,11.78-5.275,11.78-11.78V89.044C144.696,79.551,136.772,71.911,127.184,72.367z"/>
	<path style="fill:#3ABBE6;" d="M32.453,72.361C14.266,72.86,0,88.239,0,106.434v152.905c0,6.506,5.275,11.78,11.78,11.78h43.222
		c6.506,0,11.78-5.275,11.78-11.78v-153.6C66.783,86.986,51.324,71.844,32.453,72.361z"/>
	<path style="fill:#3ABBE6;" d="M299.583,72.361c-18.187,0.499-32.453,15.878-32.453,34.072v152.905
		c0,6.506,5.275,11.78,11.78,11.78h43.222c6.506,0,11.78-5.275,11.78-11.78v-153.6C333.913,86.986,318.454,71.844,299.583,72.361z"
		/>
	<path style="fill:#3ABBE6;" d="M512,105.739c0-18.754-15.459-33.896-34.33-33.378c-18.188,0.499-32.453,15.878-32.453,34.072
		v152.905c0,6.506,5.275,11.78,11.78,11.78h43.222c6.506,0,11.78-5.275,11.78-11.78V105.739z"/>
</g>
<g>
	<path style="fill:#33A6CC;" d="M378.435,256v166.957c0,9.223,7.479,16.696,16.696,16.696c9.217,0,16.696-7.473,16.696-16.696V256
		H378.435z"/>
	<path style="fill:#33A6CC;" d="M189.217,256v166.957c0,9.223,7.479,16.696,16.696,16.696c9.217,0,16.696-7.473,16.696-16.696V256
		H189.217z"/>
	<path style="fill:#33A6CC;" d="M111.304,256v166.957c0,9.223,7.479,16.696,16.696,16.696s16.696-7.473,16.696-16.696V256H111.304z"
		/>
</g>
<path style="fill:#D9472B;" d="M267.13,256v150.261c0,18.442,14.949,33.391,33.391,33.391s33.391-14.949,33.391-33.391V256H267.13z"
	/>
<g>
	<path style="fill:#33A6CC;" d="M267.13,256v150.261c0,18.442,14.949,33.391,33.391,33.391s33.391-14.949,33.391-33.391V256H267.13z
		"/>
	<path style="fill:#33A6CC;" d="M445.217,256v150.261c0,18.442,14.949,33.391,33.391,33.391S512,424.703,512,406.261V256H445.217z"
		/>
	<path style="fill:#33A6CC;" d="M0,256v150.261c0,18.442,14.949,33.391,33.391,33.391s33.391-14.949,33.391-33.391V256H0z"/>
</g>
</svg>