<?xml version="1.0" encoding="iso-8859-1"?>
<!-- Uploaded to: SVG Repo, www.svgrepo.com, Generator: SVG Repo Mixer Tools -->
<svg version="1.1" id="Layer_1" xmlns="http://www.w3.org/2000/svg" xmlns:xlink="http://www.w3.org/1999/xlink" 
	 viewBox="0 0 451.296 451.296" xml:space="preserve">
<circle style="fill:#334D5C;" cx="225.638" cy="225.638" r="225.638"/>
<path style="opacity:0.1;enable-background:new    ;" d="M451.296,225.638c0-12.164-0.992-24.093-2.845-35.735l-93.53-93.53H96.355
	v258.566l93.504,93.505c11.656,1.857,23.6,2.852,35.779,2.852C350.266,451.296,451.296,350.265,451.296,225.638z"/>
<rect x="96.353" y="96.353" style="fill:#FFFFFF;" width="258.56" height="258.56"/>
<g>
	<polygon style="fill:#EBF0F3;" points="341.453,335.753 130.523,335.753 130.523,120.637 135.224,120.637 135.224,331.052 
		341.453,331.052 	"/>
	<rect x="132.874" y="305.459" style="fill:#EBF0F3;" width="208.579" height="4.7"/>
	<rect x="132.874" y="280.33" style="fill:#EBF0F3;" width="208.579" height="4.7"/>
	<rect x="132.874" y="255.232" style="fill:#EBF0F3;" width="208.579" height="4.7"/>
	<rect x="132.874" y="230.129" style="fill:#EBF0F3;" width="208.579" height="4.7"/>
	<rect x="132.874" y="205.03" style="fill:#EBF0F3;" width="208.579" height="4.7"/>
	<rect x="132.874" y="179.917" style="fill:#EBF0F3;" width="208.579" height="4.7"/>
	<rect x="132.874" y="154.829" style="fill:#EBF0F3;" width="208.579" height="4.7"/>
	<rect x="132.874" y="129.741" style="fill:#EBF0F3;" width="208.579" height="4.7"/>
</g>
<g>
	<path style="fill:#64798A;" d="M112.366,337.503c-0.668-0.928-1.003-2.167-1.003-3.714c0-1.552,0.335-2.792,1.003-3.719
		c0.668-0.928,1.674-1.391,3.019-1.391c1.343,0,2.348,0.464,3.016,1.391c0.668,0.927,1.003,2.167,1.003,3.719
		c0,1.547-0.335,2.786-1.003,3.714c-0.668,0.928-1.674,1.391-3.016,1.391C114.039,338.894,113.034,338.43,112.366,337.503z
		 M113.557,331.121c-0.39,0.675-0.585,1.566-0.585,2.667c0,1.097,0.195,1.988,0.585,2.663c0.39,0.679,0.998,1.015,1.827,1.015
		c0.826,0,1.43-0.335,1.811-1.006c0.381-0.675,0.571-1.565,0.571-2.672c0-1.111-0.19-2.002-0.571-2.677
		c-0.381-0.67-0.985-1.005-1.811-1.005C114.556,330.107,113.947,330.442,113.557,331.121z"/>
	<path style="fill:#64798A;" d="M118.155,303.546v1.506h-4.16v2.429c0.413-0.225,0.881-0.34,1.409-0.34
		c0.92,0,1.715,0.275,2.383,0.831c0.668,0.556,1.001,1.308,1.001,2.259c0,0.95-0.346,1.735-1.042,2.36
		c-0.695,0.629-1.551,0.941-2.566,0.941c-1.327,0-2.385-0.445-3.175-1.327l0.889-1.212c0.076,0.073,0.177,0.16,0.303,0.266
		c0.128,0.106,0.388,0.244,0.783,0.418c0.395,0.174,0.828,0.257,1.299,0.257c0.468,0,0.898-0.138,1.283-0.423
		c0.385-0.28,0.578-0.693,0.578-1.235c0-0.537-0.204-0.955-0.615-1.253c-0.409-0.294-0.925-0.445-1.55-0.445
		c-0.627,0-1.221,0.156-1.786,0.468l-0.705-0.762v-4.738H118.155z"/>
	<path style="fill:#64798A;" d="M108.255,278.426h3.583v9.857h-1.579v-8.378h-2.004V278.426z"/>
	<path style="fill:#64798A;" d="M115.054,287.007c-0.668-0.927-1.003-2.167-1.003-3.714c0-1.552,0.335-2.792,1.003-3.719
		c0.668-0.928,1.673-1.391,3.019-1.391c1.343,0,2.348,0.464,3.016,1.391c0.668,0.927,1.003,2.167,1.003,3.719
		c0,1.547-0.335,2.787-1.003,3.714c-0.668,0.928-1.674,1.391-3.016,1.391C116.727,288.398,115.722,287.934,115.054,287.007z
		 M116.245,280.626c-0.39,0.675-0.585,1.565-0.585,2.667c0,1.097,0.195,1.988,0.585,2.663c0.39,0.679,0.999,1.015,1.827,1.015
		c0.826,0,1.43-0.335,1.811-1.005c0.381-0.675,0.572-1.565,0.572-2.672c0-1.111-0.19-2.002-0.572-2.676
		c-0.381-0.67-0.984-1.006-1.811-1.006C117.244,279.611,116.635,279.946,116.245,280.626z"/>
	<path style="fill:#64798A;" d="M109.024,253.064h3.583v9.857h-1.58v-8.378h-2.004V253.064z"/>
	<path style="fill:#64798A;" d="M120.843,253.05v1.506h-4.159v2.429c0.413-0.225,0.881-0.339,1.409-0.339
		c0.921,0,1.715,0.275,2.383,0.831c0.668,0.556,1.001,1.308,1.001,2.259c0,0.95-0.346,1.735-1.042,2.36
		c-0.695,0.629-1.552,0.941-2.566,0.941c-1.327,0-2.385-0.445-3.175-1.327l0.889-1.212c0.076,0.073,0.177,0.161,0.303,0.266
		c0.129,0.106,0.388,0.243,0.783,0.418c0.395,0.174,0.829,0.257,1.299,0.257c0.468,0,0.897-0.138,1.283-0.422
		c0.385-0.28,0.578-0.693,0.578-1.235c0-0.537-0.204-0.955-0.615-1.253c-0.409-0.294-0.925-0.446-1.55-0.446
		c-0.627,0-1.221,0.156-1.786,0.468l-0.705-0.762v-4.738H120.843z"/>
	<path style="fill:#64798A;" d="M111.611,231.778c0.282-0.385,0.424-0.776,0.424-1.171c0-0.395-0.151-0.73-0.452-1.006
		c-0.301-0.28-0.682-0.417-1.143-0.417c-0.808,0-1.48,0.413-2.015,1.239l-1.34-0.776c0.434-0.647,0.909-1.134,1.432-1.464
		c0.521-0.331,1.194-0.496,2.015-0.496c0.824,0,1.545,0.262,2.167,0.785c0.62,0.523,0.93,1.235,0.93,2.135
		c0,0.51-0.131,0.991-0.395,1.455c-0.264,0.459-0.748,1.051-1.453,1.777l-2.312,2.355h4.469v1.593h-6.742v-1.409l2.991-3.007
		C110.855,232.696,111.331,232.164,111.611,231.778z"/>
	<path style="fill:#64798A;" d="M116.521,236.512c-0.668-0.928-1.003-2.167-1.003-3.714c0-1.551,0.335-2.791,1.003-3.719
		c0.668-0.927,1.674-1.391,3.019-1.391c1.343,0,2.348,0.464,3.016,1.391c0.668,0.928,1.003,2.167,1.003,3.719
		c0,1.547-0.335,2.787-1.003,3.714c-0.668,0.927-1.674,1.391-3.016,1.391C118.194,237.903,117.189,237.439,116.521,236.512z
		 M117.712,230.13c-0.39,0.675-0.585,1.566-0.585,2.667c0,1.097,0.195,1.988,0.585,2.663c0.39,0.68,0.999,1.015,1.827,1.015
		c0.826,0,1.43-0.335,1.811-1.006c0.381-0.675,0.572-1.566,0.572-2.672c0-1.111-0.19-2.001-0.572-2.676
		c-0.381-0.67-0.984-1.006-1.811-1.006C118.71,229.115,118.102,229.451,117.712,230.13z"/>
	<path style="fill:#64798A;" d="M112.379,206.531c0.283-0.386,0.425-0.776,0.425-1.171c0-0.395-0.152-0.73-0.452-1.005
		c-0.301-0.28-0.682-0.418-1.143-0.418c-0.808,0-1.48,0.413-2.015,1.24l-1.341-0.776c0.434-0.647,0.909-1.134,1.432-1.464
		c0.521-0.33,1.194-0.496,2.015-0.496c0.824,0,1.545,0.262,2.167,0.785c0.62,0.524,0.929,1.235,0.929,2.135
		c0,0.51-0.131,0.992-0.394,1.455c-0.264,0.459-0.748,1.051-1.453,1.777l-2.312,2.355h4.469v1.593h-6.742v-1.409l2.991-3.007
		C111.624,207.449,112.1,206.916,112.379,206.531z"/>
	<path style="fill:#64798A;" d="M122.31,202.67v1.506h-4.159v2.429c0.413-0.225,0.881-0.34,1.409-0.34
		c0.92,0,1.715,0.275,2.383,0.831c0.668,0.555,1.001,1.308,1.001,2.258c0,0.951-0.346,1.736-1.042,2.36
		c-0.695,0.629-1.551,0.941-2.566,0.941c-1.327,0-2.385-0.445-3.175-1.327l0.889-1.212c0.076,0.074,0.177,0.161,0.303,0.267
		c0.128,0.105,0.388,0.243,0.783,0.418c0.394,0.174,0.828,0.257,1.299,0.257c0.468,0,0.897-0.138,1.283-0.422
		c0.385-0.28,0.578-0.693,0.578-1.235c0-0.537-0.204-0.955-0.615-1.253c-0.409-0.294-0.925-0.445-1.55-0.445
		c-0.627,0-1.221,0.156-1.786,0.468l-0.705-0.762v-4.738H122.31z"/>
	<path style="fill:#64798A;" d="M107.543,178.907v-1.479h5.769v1.295l-2.383,2.667c0.902,0.028,1.607,0.312,2.115,0.854
		c0.507,0.542,0.762,1.184,0.762,1.937c0,1.005-0.34,1.795-1.022,2.369c-0.682,0.574-1.559,0.863-2.631,0.863
		s-2.121-0.345-3.145-1.033l0.705-1.336c0.808,0.56,1.655,0.844,2.539,0.844c0.574,0,1.045-0.133,1.416-0.404
		c0.372-0.266,0.558-0.652,0.558-1.157c0-0.5-0.206-0.905-0.62-1.203c-0.416-0.303-0.99-0.455-1.722-0.455
		c-0.367,0-0.719,0.055-1.058,0.156v-1.267l2.286-2.654H107.543z"/>
	<path style="fill:#64798A;" d="M116.443,186.009c-0.668-0.927-1.003-2.167-1.003-3.714c0-1.552,0.335-2.791,1.003-3.719
		c0.668-0.928,1.674-1.391,3.019-1.391c1.343,0,2.348,0.464,3.016,1.391c0.668,0.928,1.003,2.167,1.003,3.719
		c0,1.547-0.335,2.787-1.003,3.714c-0.668,0.928-1.674,1.391-3.016,1.391C118.116,187.4,117.111,186.937,116.443,186.009z
		 M117.634,179.628c-0.39,0.675-0.585,1.566-0.585,2.667c0,1.097,0.195,1.988,0.585,2.663c0.39,0.679,0.999,1.015,1.827,1.015
		c0.826,0,1.43-0.335,1.811-1.005c0.381-0.675,0.572-1.566,0.572-2.672c0-1.111-0.19-2.002-0.572-2.676
		c-0.381-0.67-0.984-1.006-1.811-1.006C118.632,178.613,118.024,178.948,117.634,179.628z"/>
	<path style="fill:#64798A;" d="M108.312,153.545v-1.479h5.769v1.295l-2.383,2.667c0.902,0.028,1.607,0.312,2.114,0.854
		c0.507,0.542,0.762,1.184,0.762,1.937c0,1.005-0.339,1.795-1.022,2.369c-0.682,0.574-1.558,0.863-2.63,0.863
		c-1.072,0-2.121-0.345-3.145-1.033l0.705-1.336c0.808,0.56,1.655,0.845,2.539,0.845c0.574,0,1.044-0.134,1.416-0.404
		c0.372-0.266,0.558-0.652,0.558-1.157c0-0.5-0.206-0.905-0.62-1.203c-0.416-0.303-0.99-0.455-1.722-0.455
		c-0.368,0-0.719,0.055-1.058,0.156v-1.267l2.286-2.654H108.312z"/>
	<path style="fill:#64798A;" d="M122.232,152.052v1.506h-4.159v2.429c0.413-0.225,0.882-0.339,1.409-0.339
		c0.921,0,1.715,0.276,2.383,0.831c0.668,0.556,1.001,1.308,1.001,2.259c0,0.95-0.347,1.735-1.042,2.36
		c-0.695,0.629-1.552,0.941-2.566,0.941c-1.327,0-2.385-0.445-3.175-1.327l0.889-1.212c0.076,0.073,0.177,0.161,0.303,0.266
		c0.128,0.106,0.388,0.244,0.783,0.418c0.394,0.174,0.828,0.257,1.299,0.257c0.468,0,0.897-0.138,1.283-0.422
		c0.385-0.28,0.578-0.693,0.578-1.235c0-0.537-0.204-0.955-0.615-1.253c-0.409-0.294-0.925-0.446-1.549-0.446
		c-0.627,0-1.221,0.156-1.786,0.468l-0.705-0.762v-4.738H122.232z"/>
	<path style="fill:#64798A;" d="M111.252,132.808v-1.809h1.579v1.809h1.185v1.506h-1.185v2.484h-1.579v-2.484h-4.233v-1.464
		l3.625-5.909h1.82l-3.57,5.868H111.252z"/>
	<path style="fill:#64798A;" d="M116.399,135.521c-0.668-0.927-1.003-2.167-1.003-3.714c0-1.552,0.335-2.792,1.003-3.719
		c0.668-0.928,1.674-1.391,3.019-1.391c1.343,0,2.348,0.464,3.016,1.391c0.668,0.927,1.003,2.167,1.003,3.719
		c0,1.547-0.335,2.787-1.003,3.714c-0.668,0.928-1.673,1.391-3.016,1.391C118.072,136.912,117.067,136.448,116.399,135.521z
		 M117.59,129.139c-0.39,0.675-0.585,1.566-0.585,2.667c0,1.097,0.195,1.988,0.585,2.663c0.39,0.679,0.999,1.015,1.827,1.015
		c0.826,0,1.43-0.335,1.811-1.005c0.381-0.675,0.571-1.566,0.571-2.672c0-1.111-0.19-2.002-0.571-2.676
		c-0.381-0.67-0.985-1.006-1.811-1.006C118.589,128.125,117.98,128.46,117.59,129.139z"/>
</g>
<rect x="150.528" y="224.599" style="fill:#FCD462;" width="26.194" height="109.635"/>
<rect x="198.769" y="176.23" style="fill:#44C4A1;" width="26.194" height="158.003"/>
<rect x="247.04" y="248.781" style="fill:#E56353;" width="26.194" height="85.448"/>
<rect x="295.27" y="206.848" style="fill:#27A2DB;" width="26.194" height="127.37"/>
</svg>