<?xml version="1.0" encoding="iso-8859-1"?>
<!-- Uploaded to: SVG Repo, www.svgrepo.com, Generator: SVG Repo Mixer Tools -->
<svg height="800px" width="800px" version="1.1" id="Layer_1" xmlns="http://www.w3.org/2000/svg" xmlns:xlink="http://www.w3.org/1999/xlink" 
	 viewBox="0 0 511.995 511.995" xml:space="preserve">
<circle style="fill:#71B84F;" cx="255.997" cy="255.997" r="255.997"/>
<path style="fill:#63A147;" d="M508.732,296.708C491.015,407.536,402.203,494.57,290.516,509.65L178.254,397.387l53.551-257.032
	l6.364-14.907l17.487-5.103l25.112,5.618l64.387,64.387l28.61-28.61L508.673,296.65L508.732,296.708z"/>
<path style="fill:#E84F4F;" d="M366.599,180.433L351.29,374.798c-1.032,12.958-10.033,23.737-22.189,23.737H184.79
	c-12.213,0-21.099-10.722-22.189-23.737l-16.913-194.365L366.599,180.433L366.599,180.433z"/>
<path style="fill:#C94545;" d="M366.599,180.433l-15.251,194.365c-1.032,12.958-10.033,23.737-22.189,23.737H255.77V180.433h110.885
	H366.599z"/>
<path style="fill:#F7F7F8;" d="M160.366,146.777h64.502c0-0.573-0.057-1.09-0.057-1.663l0,0c0-17.373,14.047-31.648,31.19-31.648
	l0,0c17.144,0,31.19,14.219,31.19,31.648l0,0c0,0.573,0,1.09-0.057,1.663h64.502c12.843,0,24.482,10.779,23.392,23.737
	l-0.975,11.868H138.005l-1.09-11.868c-1.204-13.015,10.549-23.737,23.392-23.737H160.366z M238.57,146.777h34.916
	c0.057-0.516,0.057-1.09,0.057-1.663l0,0c0-9.804-7.912-17.774-17.545-17.774l0,0c-9.632,0-17.545,8.027-17.545,17.774l0,0
	c0,0.573,0,1.09,0.057,1.663H238.57z"/>
<path style="fill:#E6E6E6;" d="M255.713,113.523h0.286l0,0c17.144,0,31.19,14.219,31.19,31.648l0,0c0,0.573,0,1.09-0.057,1.663
	h64.502c12.843,0,24.482,10.779,23.392,23.737l-0.975,11.868H255.713v-35.605h17.774c0.057-0.516,0.057-1.09,0.057-1.663l0,0
	c0-9.804-7.912-17.774-17.545-17.774l0,0h-0.286V113.58L255.713,113.523L255.713,113.523z"/>
<path style="fill:#F7F7F8;" d="M189.147,213.171L189.147,213.171c7.339,0,13.359,6.02,13.359,13.359v145.745h-26.66V226.529
	c0-7.339,6.02-13.359,13.359-13.359L189.147,213.171L189.147,213.171z M323.082,213.171L323.082,213.171
	c7.339,0,13.359,6.02,13.359,13.359v145.745h-26.66V226.529c0-7.339,6.02-13.359,13.359-13.359L323.082,213.171L323.082,213.171z
	 M278.418,213.171L278.418,213.171c7.339,0,13.359,6.02,13.359,13.359v145.745h-26.66V226.529c0-7.339,6.02-13.359,13.359-13.359
	L278.418,213.171L278.418,213.171z M233.754,213.171L233.754,213.171c7.339,0,13.359,6.02,13.359,13.359v145.745h-26.66V226.529
	c0-7.339,6.02-13.359,13.359-13.359L233.754,213.171L233.754,213.171z"/>
<path style="fill:#E3E3E3;" d="M323.082,213.171L323.082,213.171c7.339,0,13.359,6.02,13.359,13.359v145.745h-26.66V226.529
	c0-7.339,6.02-13.359,13.359-13.359L323.082,213.171L323.082,213.171z M278.418,213.171L278.418,213.171
	c7.339,0,13.359,6.02,13.359,13.359v145.745h-26.66V226.529c0-7.339,6.02-13.359,13.359-13.359L278.418,213.171L278.418,213.171z"/>
</svg>