<?xml version="1.0" encoding="iso-8859-1"?>
<!-- Uploaded to: SVG Repo, www.svgrepo.com, Generator: SVG Repo Mixer Tools -->
<svg height="800px" width="800px" version="1.1" id="Layer_1" xmlns="http://www.w3.org/2000/svg" xmlns:xlink="http://www.w3.org/1999/xlink" 
	 viewBox="0 0 512 512" xml:space="preserve">
<path style="fill:#7BD9BF;" d="M256,0C114.842,0,0,114.842,0,256c0,141.157,114.842,256,256,256s256-114.843,256-256
	C512,114.842,397.158,0,256,0z"/>
<g>
	<path style="fill:#386468;" d="M256,230.09L198.878,342.09c-0.917,1.857-1.382,3.776-1.382,5.702c0,6.692,5.77,12.353,12.6,12.361
		h0.017c4.948-0.008,9.228-2.675,11.418-7.072L256,285.694V230.09z"/>
	<path style="fill:#386468;" d="M217.721,232.865v-37.401c0-21.769-13.383-34.256-36.729-34.256
		c-23.329,0-36.709,12.487-36.709,34.256v37.404c0.002,21.777,13.383,34.267,36.714,34.267
		C204.336,267.135,217.721,254.644,217.721,232.865z M193.008,232.868c0,5.326-1.427,10.771-12.01,10.774
		c-10.335-0.003-11.759-5.181-11.759-10.777v-37.401c0-5.595,1.424-10.775,11.759-10.775c10.581,0,12.009,5.449,12.01,10.775
		V232.868z"/>
</g>
<path style="fill:#66B4BA;" d="M180.998,184.688c-10.335,0-11.759,5.18-11.759,10.775v37.401c0,5.596,1.424,10.774,11.759,10.777
	c10.583-0.003,12.01-5.449,12.01-10.774v-37.404C193.007,190.137,191.58,184.688,180.998,184.688z"/>
<g>
	<path style="fill:#386468;" d="M256,285.694l58.833-115.017c0.932-1.863,1.386-3.818,1.386-5.973
		c0-7.691-6.768-12.857-13.089-12.857c-4.707,0-8.625,2.408-10.515,6.453L256,230.09V285.694z"/>
	<path style="fill:#386468;" d="M331.002,248.318c-22.993,0-36.721,12.808-36.721,34.261v37.409
		c0,21.772,13.385,34.257,36.723,34.257c23.332,0,36.714-12.485,36.714-34.257v-37.409
		C367.717,261.126,353.991,248.318,331.002,248.318z M343.001,319.988c0,5.325-1.426,10.766-11.999,10.766
		c-10.332,0-11.756-5.171-11.756-10.761v-37.413c0-5.596,1.424-10.775,11.757-10.775c10.572,0,11.998,5.449,11.998,10.778
		L343.001,319.988L343.001,319.988z"/>
</g>
<polygon style="fill:#7BD9BF;" points="292.614,158.3 256,230.09 256,230.09 "/>
<g>
	<path style="fill:#66B4BA;" d="M221.53,353.081c-2.189,4.397-6.47,7.064-11.418,7.072h-0.017c-6.83-0.008-12.6-5.668-12.6-12.361
		c0-1.925,0.465-3.845,1.382-5.702L256,230.09V0C114.842,0,0,114.842,0,256c0,141.157,114.842,256,256,256V285.694L221.53,353.081z
		 M144.283,232.868v-37.404c0-21.769,13.38-34.256,36.709-34.256c23.346,0,36.729,12.487,36.729,34.256v37.401
		c0,21.779-13.385,34.27-36.724,34.27C157.667,267.135,144.285,254.646,144.283,232.868z"/>
	<polygon style="fill:#66B4BA;" points="256,230.09 256,230.09 198.878,342.09 	"/>
</g>
</svg>