<?xml version="1.0" encoding="iso-8859-1"?>
<!-- Uploaded to: SVG Repo, www.svgrepo.com, Generator: SVG Repo Mixer Tools -->
<svg version="1.1" id="Layer_1" xmlns="http://www.w3.org/2000/svg" xmlns:xlink="http://www.w3.org/1999/xlink" 
	 viewBox="0 0 297 297" xml:space="preserve">
<g>
	<g>
		<g>
			<g>
				<g>
					<g>
						<g>
							<circle style="fill:#32373B;" cx="148.5" cy="148.5" r="148.5"/>
						</g>
					</g>
				</g>
			</g>
		</g>
	</g>
	<path style="fill:#262C30;" d="M203.401,85.299L53.625,214.249l80.881,82.09C139.114,296.77,143.78,297,148.5,297
		c72.515,0,132.879-51.979,145.892-120.709L203.401,85.299z"/>
	<g>
		<g>
			<path style="fill:#B85627;" d="M98.816,180.884h99.369c3.418,0,6.188-2.771,6.188-6.188V88.304c0-3.418-2.771-6.188-6.188-6.188
				H98.816c-3.418,0-6.188,2.771-6.188,6.188v86.392C92.627,178.114,95.398,180.884,98.816,180.884z"/>
		</g>
	</g>
	<g>
		<g>
			<path style="fill:#A3421C;" d="M198.184,82.116h-49.898v98.768h49.898c3.418,0,6.188-2.771,6.188-6.188V88.304
				C204.373,84.886,201.602,82.116,198.184,82.116z"/>
		</g>
	</g>
	<g>
		<g>
			<rect x="137.903" y="82.116" style="fill:#FFA800;" width="21.193" height="42.386"/>
		</g>
	</g>
	<g>
		<g>
			<rect x="148.286" y="82.116" style="fill:#D36818;" width="10.81" height="42.386"/>
		</g>
	</g>
	<g>
		<path style="fill:#F9B65F;" d="M227.514,173.021c-10.527,2.65-30.275,6.599-42.995,7.393c-6.214,0.388-25.224-1.142-29.43-3.345
			c-7.35-3.85-7.006-10.779-7.006-10.779h25.242c3.626,0,7.03-2.275,7.03-5.902c0,0-0.018-2.357-0.058-2.858
			c-0.289-3.615-2.947-6.331-6.566-6.565c-9.313-0.602-28.395-3.387-37.803-4.111c-7.962-0.612-22.136,1.4-30.186,8.05
			c-5.054,4.175-7.787,6.166-10.082,8.051c-4.832,3.968-31.176,6.648-42.036,6.648v44.646c8.255-5.921,32.941-12.625,40.306-14.781
			c7.175-2.1,11.192-4.379,35.96,0.583c31.449,6.301,34.349,6.372,49.765,4.201c11.075-1.559,36.653-8.933,47.831-14.816
			c4.037-2.125,7.67-4.29,7.67-8.511v-0.262C235.156,176.443,231.607,171.991,227.514,173.021z"/>
	</g>
	<g>
		<path style="fill:#E8A34F;" d="M173.326,166.29c3.626,0,7.03-2.275,7.03-5.902c0,0-0.018-2.357-0.058-2.858
			c-0.289-3.615-2.947-6.331-6.566-6.565c-6.06-0.392-16.256-1.708-25.232-2.778v18.104h24.826V166.29z"/>
	</g>
	<g>
		<path style="fill:#E8A34F;" d="M227.514,173.021c-10.527,2.65-30.274,6.599-42.995,7.393c-6.214,0.388-25.224-1.142-29.43-3.345
			c-4.272-2.238-5.937-5.509-6.589-7.862v34.417c15.013,2.626,19.527,2.266,31.156,0.628c11.075-1.559,36.653-8.933,47.831-14.816
			c4.037-2.125,7.669-4.29,7.669-8.511v-0.262C235.156,176.443,231.607,171.991,227.514,173.021z"/>
	</g>
</g>
</svg>