<?xml version="1.0" encoding="iso-8859-1"?>
<!-- Uploaded to: SVG Repo, www.svgrepo.com, Generator: SVG Repo Mixer Tools -->
<svg version="1.1" id="Layer_1" xmlns="http://www.w3.org/2000/svg" xmlns:xlink="http://www.w3.org/1999/xlink" 
	 viewBox="0 0 505.011 505.011" xml:space="preserve">
<path style="fill:#FD8469;" d="M431.05,431.055c-98.6,98.6-258.5,98.6-357.1,0s-98.6-258.5,0-357.1s258.5-98.6,357.1,0
	c77.9,77.9,94.2,193.9,49.2,287.8c-9.6,20.1-22.1,39.2-37.4,56.7C439.15,422.755,435.15,426.955,431.05,431.055z"/>
<path style="fill:#FFFFFF;" d="M483.05,130.955l-79.6,79.6c-11.9,11.9-31.3,11.9-43.2,0l-17.7-17.6c-11.9-11.9-11.9-31.3,0-43.2
	c7.3-7.3,7.3-19.2,0-26.5l-26.6-26.6c-7.3-7.3-19.2-7.3-26.5,0l-29.1,29.1l-8.4-8.4l29.1-29.1c11.9-11.9,31.3-11.9,43.2,0l26.6,26.6
	c11.9,11.9,11.9,31.3,0,43.2c-7.3,7.3-7.3,19.2,0,26.5l17.6,17.6c7.3,7.3,19.2,7.3,26.5,0l82.1-82.1
	C479.25,123.655,481.25,127.255,483.05,130.955z"/>
<polygon style="fill:#2B3B4E;" points="259.55,145.455 232.35,118.155 254.15,105.455 272.25,123.655 "/>
<path style="fill:#324A5E;" d="M434.95,310.755l-240.6-240.7c-6.8-6.8-17.9-6.8-24.7,0l-127.2,127.3c-6.8,6.8-6.8,17.9,0,24.7
	l240.7,240.7c6.8,6.8,17.9,6.8,24.7,0l127.2-127.2C441.85,328.655,441.85,317.555,434.95,310.755z"/>
<g>
	
		<rect x="160.052" y="111.408" transform="matrix(-0.7071 -0.7071 0.7071 -0.7071 252.0434 355.5158)" style="fill:#ACB3BA;" width="79.199" height="28.3"/>
	
		<rect x="239.466" y="165.37" transform="matrix(-0.7071 -0.7071 0.7071 -0.7071 306.0103 485.7925)" style="fill:#ACB3BA;" width="28.3" height="28.3"/>
	
		<rect x="275.456" y="201.371" transform="matrix(-0.7071 -0.7071 0.7071 -0.7071 341.9925 572.6992)" style="fill:#ACB3BA;" width="28.3" height="28.3"/>
	
		<rect x="311.456" y="237.372" transform="matrix(-0.7071 -0.7071 0.7071 -0.7071 377.9916 659.6129)" style="fill:#ACB3BA;" width="28.3" height="28.3"/>
	
		<rect x="347.446" y="273.373" transform="matrix(-0.7071 -0.7071 0.7071 -0.7071 413.9737 746.5196)" style="fill:#ACB3BA;" width="28.3" height="28.3"/>
	
		<rect x="383.446" y="309.374" transform="matrix(-0.7071 -0.7071 0.7071 -0.7071 449.9728 833.4333)" style="fill:#ACB3BA;" width="28.3" height="28.3"/>
	
		<rect x="133.504" y="127.338" transform="matrix(-0.7071 -0.7071 0.7071 -0.7071 152.0142 345.9419)" style="fill:#ACB3BA;" width="28.3" height="28.3"/>
	
		<rect x="169.494" y="163.339" transform="matrix(-0.7071 -0.7071 0.7071 -0.7071 187.9963 432.8486)" style="fill:#ACB3BA;" width="28.3" height="28.3"/>
	
		<rect x="205.565" y="199.27" transform="matrix(-0.7071 -0.7071 0.7071 -0.7071 224.1662 519.6916)" style="fill:#ACB3BA;" width="28.3" height="28.3"/>
	
		<rect x="241.555" y="235.271" transform="matrix(-0.7071 -0.7071 0.7071 -0.7071 260.1483 606.5982)" style="fill:#ACB3BA;" width="28.3" height="28.3"/>
	
		<rect x="277.555" y="271.272" transform="matrix(-0.7071 -0.7071 0.7071 -0.7071 296.1474 693.512)" style="fill:#ACB3BA;" width="28.3" height="28.3"/>
	
		<rect x="313.545" y="307.273" transform="matrix(-0.7071 -0.7071 0.7071 -0.7071 332.1295 780.4186)" style="fill:#ACB3BA;" width="28.3" height="28.3"/>
	
		<rect x="349.545" y="343.274" transform="matrix(-0.7071 -0.7071 0.7071 -0.7071 368.1286 867.3324)" style="fill:#ACB3BA;" width="28.3" height="28.3"/>
	
		<rect x="99.603" y="161.246" transform="matrix(-0.7071 -0.7071 0.7071 -0.7071 70.1644 379.8546)" style="fill:#ACB3BA;" width="28.3" height="28.3"/>
	
		<rect x="135.603" y="197.249" transform="matrix(-0.7071 -0.7071 0.7071 -0.7071 106.1621 466.7717)" style="fill:#ACB3BA;" width="28.3" height="28.3"/>
	
		<rect x="171.593" y="233.25" transform="matrix(-0.7071 -0.7071 0.7071 -0.7071 142.1442 553.6784)" style="fill:#ACB3BA;" width="28.3" height="28.3"/>
	
		<rect x="207.663" y="269.181" transform="matrix(-0.7071 -0.7071 0.7071 -0.7071 178.3141 640.5214)" style="fill:#ACB3BA;" width="28.3" height="28.3"/>
	
		<rect x="236.168" y="323.142" transform="matrix(-0.7071 -0.7071 0.7071 -0.7071 232.2639 770.791)" style="fill:#ACB3BA;" width="79.199" height="28.3"/>
	
		<rect x="315.654" y="377.184" transform="matrix(-0.7071 -0.7071 0.7071 -0.7071 286.2944 901.2556)" style="fill:#ACB3BA;" width="28.3" height="28.3"/>
	
		<rect x="65.701" y="195.152" transform="matrix(-0.7071 -0.7071 0.7071 -0.7071 -11.6841 413.7639)" style="fill:#ACB3BA;" width="28.3" height="28.3"/>
	
		<rect x="79.307" y="285.12" transform="matrix(-0.7071 -0.7071 0.7071 -0.7071 78.2614 630.9557)" style="fill:#ACB3BA;" width="180.998" height="28.3"/>
	
		<rect x="245.752" y="375.083" transform="matrix(-0.7071 -0.7071 0.7071 -0.7071 168.4511 848.2408)" style="fill:#ACB3BA;" width="28.3" height="28.3"/>
	
		<rect x="281.752" y="411.084" transform="matrix(-0.7071 -0.7071 0.7071 -0.7071 204.4503 935.1545)" style="fill:#ACB3BA;" width="28.3" height="28.3"/>
</g>
</svg>