<?xml version="1.0" encoding="iso-8859-1"?>
<!-- Uploaded to: SVG Repo, www.svgrepo.com, Generator: SVG Repo Mixer Tools -->
<svg version="1.1" id="Layer_1" xmlns="http://www.w3.org/2000/svg" xmlns:xlink="http://www.w3.org/1999/xlink" 
	 viewBox="0 0 511.998 511.998" xml:space="preserve">
<rect x="161.605" y="359.567" style="fill:#FF5023;" width="350.393" height="70.079"/>
<path style="fill:#00A1A7;" d="M33.625,45.267L0,149.322h24.326l5.865-21.236h32.841l5.94,21.236h24.326L59.599,45.267
	C59.599,45.267,33.625,45.267,33.625,45.267z M35.557,111.098l10.805-38.225h0.427l10.875,38.225H35.557z"/>
<g>
	<path style="fill:#FF9811;" d="M88.93,263.391c-2.907-4.177-7.416-6.946-13.521-8.329c4.865-1.956,8.465-4.865,10.805-8.73
		c2.336-3.861,3.504-8.273,3.504-13.234c0-9.492-3.625-16.604-10.875-21.399c-7.25-4.793-17.337-7.161-30.265-7.161H12.956v104.056
		h40.773c12.737,0,22.514-2.57,29.335-7.768c6.819-5.199,10.231-12.865,10.231-23.026C93.298,272.359,91.841,267.564,88.93,263.391z
		 M36.316,223.648h12.262c5.723,0,9.97,0.618,12.737,2.644c2.767,2.028,4.147,4.863,4.147,9.297c0,0.059-0.006,0.115-0.008,0.174
		c0.002,0.066,0.008,0.13,0.008,0.195c0,3.912-1.357,6.358-4.077,8.384c-2.716,2.028-6.823,2.665-12.306,2.665H36.313v-23.36H36.316
		z M68.169,277.545c0,4.198-0.779,7.15-3.355,9.178c-2.576,2.028-5.933,2.756-11.085,2.756H36.316v-25.483H55.09
		c4.961,0,8.042,1.053,10.261,3.368c2.219,2.315,2.82,5.632,2.82,10.166c0,0.004,0,0.006,0,0.008v0.006H68.169z"/>
	<path style="fill:#FF9811;" d="M65.349,267.364c-2.219-2.315-5.553-3.368-10.514-3.368c4.961,0,8.167,1.123,10.386,3.438
		c2.219,2.315,2.948,5.577,2.948,10.104c0-0.002,0-0.004,0-0.008C68.169,272.996,67.568,269.679,65.349,267.364z"/>
	<path style="fill:#FF9811;" d="M65.453,235.763c0.002-0.059,0.008-0.115,0.008-0.174c0-4.434-1.38-7.269-4.147-9.297
		c-2.767-2.026-7.014-2.644-12.737-2.644c5.723,0,9.97,0.731,12.737,2.756C64.039,228.401,65.413,231.433,65.453,235.763z"/>
</g>
<path style="fill:#BF3C1A;" d="M51.297,359.558c-12.402,0-22.843,3.969-30.597,11.911c-7.751,7.94-11.994,18.208-11.994,30.801
	v21.75c0,12.64,4.396,22.92,12.459,30.837c8.059,7.919,18.717,11.875,31.595,11.875c12.829,0,22.708-3.219,29.461-9.658
	c6.749-6.439,10.408-15.279,10.883-27.49l-0.096,0.051H69.473c-0.336,6.371-1.718,11.227-4.152,14.328
	c-2.432,3.1-6.558,4.406-12.376,4.406c-6.01,0-11.512-2.338-14.946-6.772c-3.434-4.436-5.929-10.376-5.929-17.577v-21.894
	c0-7.154,2.355-12.939,5.502-17.35c3.147-4.411,7.851-6.617,13.338-6.617c6.488,0,11.274,1.44,13.971,4.731
	c2.693,3.292,4.4,8.522,4.736,14.893h23.538l0.144-0.225c-0.909-12.208-4.844-21.529-11.805-28.157
	C74.525,362.769,64.462,359.558,51.297,359.558z"/>
<rect x="161.605" y="221.533" style="fill:#FFDA44;" width="350.393" height="70.079"/>
<rect x="161.605" y="79.252" style="fill:#00D7DF;" width="350.393" height="70.079"/>
<rect x="267.785" y="359.567" style="fill:#BF3C1A;" width="244.213" height="70.079"/>
<rect x="267.785" y="221.533" style="fill:#FF9811;" width="244.213" height="70.079"/>
<rect x="267.785" y="79.252" style="fill:#00A1A7;" width="244.213" height="70.079"/>
</svg>