<?xml version="1.0" encoding="iso-8859-1"?>
<!-- Uploaded to: SVG Repo, www.svgrepo.com, Generator: SVG Repo Mixer Tools -->
<svg version="1.1" id="Layer_1" xmlns="http://www.w3.org/2000/svg" xmlns:xlink="http://www.w3.org/1999/xlink" 
	 viewBox="0 0 460 460" xml:space="preserve">
<g>
	<path style="fill:#366796;" d="M230,0C102.974,0,0,102.975,0,230c0,99.6,63.308,184.412,151.879,216.393l307.836-227.938
		C453.7,96.793,353.154,0,230,0z"/>
	<path style="fill:#121149;" d="M460,230c0-3.873-0.099-7.723-0.288-11.548L298.91,57.65H178L105,399.5l46.884,46.884
		C176.273,455.19,202.574,460,230,460C357.026,460,460,357.025,460,230z"/>
	<path style="fill:#FEE187;" d="M327.5,126.56v87.6h-20c0,0,0-44.8,0-87.6s-34.7-77.5-77.5-77.5l-10-10l10-10
		C283.76,29.06,327.5,72.8,327.5,126.56z"/>
	<path style="fill:#FFC61B;" d="M307.5,126.56c0,42.8,0,87.6,0,87.6h-20v-87.6c0-31.7-25.79-57.5-57.5-57.5l-10-10l10-10
		C272.8,49.06,307.5,83.76,307.5,126.56z"/>
	<path style="fill:#FEE187;" d="M230,49.06v20c-31.71,0-57.5,25.8-57.5,57.5v87.6h-20c0,0,0-44.8,0-87.6S187.2,49.06,230,49.06z"/>
	<path style="fill:#FFEDB5;" d="M230,29.06v20c-42.8,0-77.5,34.7-77.5,77.5s0,87.6,0,87.6h-20v-87.6
		C132.5,72.8,176.24,29.06,230,29.06z"/>
	<polygon style="fill:#D48B07;" points="355,204.5 355,379.5 230,389.5 207.273,292 230,194.5 	"/>
	<polygon style="fill:#FFC61B;" points="230,194.5 230,389.5 105,379.5 105,204.5 	"/>
	<polygon style="fill:#FFC61B;" points="355,184.5 355,204.5 230,204.5 207.273,194.5 230,184.5 	"/>
	<rect x="105" y="184.5" style="fill:#FEE187;" width="125" height="20"/>
	<path style="fill:#121149;" d="M260,268.1c0,8.88-3.86,16.86-10,22.35v42.65h-20l-10-47.5l10-47.5
		C246.57,238.1,260,251.53,260,268.1z"/>
	<path style="fill:#366796;" d="M230,238.1v95h-20v-42.65c-6.14-5.49-10-13.47-10-22.35C200,251.53,213.43,238.1,230,238.1z"/>
	<polygon style="fill:#FFC61B;" points="355,379.5 355,399.5 230,399.5 207.273,389.5 230,379.5 	"/>
	<rect x="105" y="379.5" style="fill:#FEE187;" width="125" height="20"/>
</g>
</svg>