<?xml version="1.0" encoding="UTF-8" standalone="no"?>
<!-- Uploaded to: SVG Repo, www.svgrepo.com, Generator: SVG Repo Mixer Tools -->

<svg
   height="800px"
   width="800px"
   version="1.1"
   id="Layer_1"
   viewBox="0 0 512 512"
   xml:space="preserve"
   sodipodi:docname="login.svg"
   inkscape:version="1.3.2 (091e20e, 2023-11-25, custom)"
   xmlns:inkscape="http://www.inkscape.org/namespaces/inkscape"
   xmlns:sodipodi="http://sodipodi.sourceforge.net/DTD/sodipodi-0.dtd"
   xmlns="http://www.w3.org/2000/svg"
   xmlns:svg="http://www.w3.org/2000/svg"><defs
   id="defs7" /><sodipodi:namedview
   id="namedview7"
   pagecolor="#ffffff"
   bordercolor="#000000"
   borderopacity="0.25"
   inkscape:showpageshadow="2"
   inkscape:pageopacity="0.0"
   inkscape:pagecheckerboard="0"
   inkscape:deskcolor="#d1d1d1"
   inkscape:zoom="0.79125"
   inkscape:cx="400"
   inkscape:cy="444.23381"
   inkscape:window-width="1600"
   inkscape:window-height="829"
   inkscape:window-x="-8"
   inkscape:window-y="-8"
   inkscape:window-maximized="1"
   inkscape:current-layer="Layer_1" />
<circle
   style="fill:#FFD15D;"
   cx="256"
   cy="256"
   r="256"
   id="circle1" />







<path
   style="fill:#4d4d4d;fill-opacity:1;stroke-width:0.808845"
   d="m 165.996,426.96549 c -1.45671,-0.93282 -3.64059,-3.38355 -4.85309,-5.44608 l -2.20452,-3.75006 -0.23717,-40.61734 -0.23717,-40.61734 -53.95557,-0.22942 c -53.660167,-0.22817 -53.973567,-0.23906 -57.246117,-1.99075 -4.86476,-2.60395 -8.98042,-7.5892 -10.4561,-12.66535 -1.11203,-3.82526 -1.24479,-10.95675 -1.04337,-56.04608 l 0.23079,-51.66311 2.40582,-4.3437 c 1.32319,-2.38904 3.52667,-5.19863 4.89661,-6.24354 5.91232,-4.50954 4.03261,-4.37642 61.793257,-4.37642 h 53.37513 l 0.23694,-41.04897 c 0.21007,-36.39245 0.3888,-41.32424 1.57558,-43.47551 1.82237,-3.30344 4.57116,-5.74553 8.15037,-7.24102 4.12378,-1.72303 7.07341,-1.56973 10.9296,0.56803 4.12692,2.28783 139.09591,148.13663 141.12733,152.50353 1.80716,3.88484 1.80077,11.1175 -0.0127,14.38038 -0.75986,1.36719 -32.42114,36.18633 -70.3584,77.37584 -49.29549,53.52149 -69.69716,75.14115 -71.50142,75.77012 -4.08932,1.42554 -9.65366,1.05365 -12.6158,-0.84321 z"
   id="path2" /><path
   style="fill:#4d4d4d;fill-opacity:1;stroke-width:0.808845"
   d="m 359.98069,51.558425 c 10.91685,1.97838 20.02049,5.92835 29.65095,12.865218 12.09571,8.712607 24.05978,26.14571 28.77548,41.929417 3.6489,12.21307 3.77083,15.14536 6.22885,149.78946 l 2.35479,128.98981 -2.00106,7.87449 c -7.4873,29.46376 -28.69672,52.42517 -54.69964,59.2181 -6.28214,1.64113 -9.70374,1.79202 -67.06868,2.95769 l -60.44882,1.22837 -0.50665,-25.04899 -0.50666,-25.04899 59.63576,-1.42862 59.63574,-1.42861 3.9823,-2.0607 c 8.33742,-4.31433 14.02511,-12.87731 15.40297,-23.18964 0.42276,-3.16406 -0.3617,-52.34672 -2.07387,-130.02566 l -2.75382,-124.93668 -2.00156,-4.68712 c -3.04388,-7.12795 -7.96738,-12.41026 -14.54777,-15.60795 l -5.59406,-2.7184 -58.91904,0.95486 -58.91903,0.95487 -0.49818,-24.630185 -0.49818,-24.630183 60.04612,-1.13851 c 46.14577,-0.874957 61.26794,-0.917092 65.32406,-0.182027 z"
   id="path3" /></svg>
