<?xml version="1.0" encoding="UTF-8" standalone="no"?>
<!-- Uploaded to: SVG Repo, www.svgrepo.com, Generator: SVG Repo Mixer Tools -->

<svg
   height="800px"
   width="800px"
   version="1.1"
   id="Layer_1"
   viewBox="0 0 512 512"
   xml:space="preserve"
   sodipodi:docname="logout.svg"
   inkscape:version="1.3.2 (091e20e, 2023-11-25, custom)"
   xmlns:inkscape="http://www.inkscape.org/namespaces/inkscape"
   xmlns:sodipodi="http://sodipodi.sourceforge.net/DTD/sodipodi-0.dtd"
   xmlns="http://www.w3.org/2000/svg"
   xmlns:svg="http://www.w3.org/2000/svg"><defs
   id="defs7" /><sodipodi:namedview
   id="namedview7"
   pagecolor="#ffffff"
   bordercolor="#000000"
   borderopacity="0.25"
   inkscape:showpageshadow="2"
   inkscape:pageopacity="0.0"
   inkscape:pagecheckerboard="0"
   inkscape:deskcolor="#d1d1d1"
   inkscape:zoom="0.79125"
   inkscape:cx="400"
   inkscape:cy="444.23381"
   inkscape:window-width="1600"
   inkscape:window-height="829"
   inkscape:window-x="-8"
   inkscape:window-y="-8"
   inkscape:window-maximized="1"
   inkscape:current-layer="Layer_1" />
<circle
   style="fill:#FFD15D;"
   cx="256"
   cy="256"
   r="256"
   id="circle1" />







<path
   style="fill:#4d4d4d;fill-opacity:1;stroke-width:0.808845"
   d="m 316.83234,413.18885 c -1.45412,-0.93687 -3.63118,-3.39367 -4.83793,-5.45957 l -2.19407,-3.75617 -0.12413,-40.61785 -0.12414,-40.61784 -53.95471,-0.37958 c -53.65933,-0.37751 -53.97269,-0.38926 -57.24035,-2.15006 -4.8575,-2.61747 -8.95928,-7.61416 -10.42081,-12.69441 -1.10138,-3.82833 -1.2143,-10.96016 -0.8874,-56.04875 l 0.37457,-51.66228 2.41789,-4.33697 c 1.32984,-2.38536 3.54113,-5.1888 4.91397,-6.22989 5.92485,-4.49308 4.04478,-4.36519 61.80521,-4.20444 l 53.37491,0.14855 0.35118,-41.04815 c 0.31135,-36.39173 0.5038,-41.323 1.69657,-43.47096 1.83157,-3.298354 4.58714,-5.732789 8.17049,-7.218309 4.12856,-1.711547 7.07775,-1.550038 10.92798,0.598448 4.12054,2.299307 138.68311,148.523161 140.70236,152.895701 1.79634,3.88985 1.76982,11.12247 -0.0527,14.38029 -0.76366,1.36506 -32.52171,36.09596 -70.57346,77.17973 -49.44425,53.38409 -69.90601,74.94689 -71.71201,75.57084 -4.09328,1.41416 -9.65656,1.02678 -12.6134,-0.87832 z"
   id="path2" /><path
   style="fill:#4d4d4d;fill-opacity:1;stroke-width:0.808845"
   d="m 164.80815,454.26067 c -10.9157,-1.98472 -20.01704,-5.93997 -29.64348,-12.88243 -12.09065,-8.71962 -24.0446,-26.15967 -28.75114,-41.94611 -3.64181,-12.21518 -3.76204,-15.14754 -6.14191,-149.79305 l -2.279933,-128.99115 2.00563,-7.87333 c 7.504403,-29.459413 28.727143,-52.40851 54.734003,-59.186347 6.28309,-1.637484 9.70478,-1.786388 67.07038,-2.918765 l 60.44953,-1.193287 0.49211,25.04928 0.49212,25.049275 -59.63658,1.394014 -59.63656,1.394 -3.98349,2.05839 c -8.33992,4.30949 -14.03258,12.86917 -15.41643,23.1807 -0.42459,3.16381 0.33132,52.34692 1.99841,130.02684 l 2.68131,124.93826 1.99884,4.68828 c 3.03974,7.12971 7.96017,12.41488 14.53871,15.61639 l 5.59248,2.72164 58.91958,-0.92066 58.91958,-0.92068 0.48388,24.63047 0.48389,24.63047 -60.04677,1.10366 c -46.14627,0.84818 -61.26846,0.88154 -65.32416,0.14412 z"
   id="path3" /></svg>
