<svg xmlns="http://www.w3.org/2000/svg" height="24" viewBox="0 -960 960 960" width="24">
    <path fill="#808080" d="M480.134-120q-74.673 0-140.41-28.339-65.737-28.34-114.365-76.922-48.627-48.582-76.993-114.257Q120-405.194 120-479.866q0-74.673 28.339-140.41 28.34-65.737 76.922-114.365 48.582-48.627 114.257-76.993Q405.194-840 479.866-840q74.673 0 140.41 28.339 65.737 28.34 114.365 76.922 48.627 48.582 76.993 114.257Q840-554.806 840-480.134q0 74.673-28.339 140.41-28.34 65.737-76.922 114.365-48.582 48.627-114.257 76.993Q554.806-120 480.134-120ZM480-160q134 0 227-93t93-227q0-134-93-227t-227-93q-134 0-227 93t-93 227q0 134 93 227t227 93ZM344.615-344.615V-433l213.308-212.308q5.923-5.154 12.222-7.615 6.299-2.462 12.599-2.462 6.871 0 13.504 2.577 6.633 2.577 12.06 7.731l37 37.769q4.923 5.923 7.5 12.308t2.577 12.769q0 6.385-2.462 12.885-2.461 6.5-7.615 12.423L433-344.615h-88.385ZM620-582.231 583-620l37 37.769ZM380-380h38l138.692-138.923-18-19.79-19-18.748L380-418v38Zm158.692-158.713-19-18.748 37 38.538-18-19.79Z"/>
</svg>