<?xml version="1.0" encoding="UTF-8" standalone="no"?>
<!-- Uploaded to: SVG Repo, www.svgrepo.com, Generator: SVG Repo Mixer Tools -->

<svg
   height="800px"
   width="800px"
   version="1.1"
   id="Layer_1"
   viewBox="0 0 512 512"
   xml:space="preserve"
   sodipodi:docname="preview.svg"
   inkscape:version="1.3.2 (091e20e, 2023-11-25, custom)"
   xmlns:inkscape="http://www.inkscape.org/namespaces/inkscape"
   xmlns:sodipodi="http://sodipodi.sourceforge.net/DTD/sodipodi-0.dtd"
   xmlns="http://www.w3.org/2000/svg"
   xmlns:svg="http://www.w3.org/2000/svg"><defs
   id="defs7" /><sodipodi:namedview
   id="namedview7"
   pagecolor="#ffffff"
   bordercolor="#000000"
   borderopacity="0.25"
   inkscape:showpageshadow="2"
   inkscape:pageopacity="0.0"
   inkscape:pagecheckerboard="0"
   inkscape:deskcolor="#d1d1d1"
   inkscape:zoom="0.79125"
   inkscape:cx="400"
   inkscape:cy="348.18325"
   inkscape:window-width="1600"
   inkscape:window-height="829"
   inkscape:window-x="-8"
   inkscape:window-y="-8"
   inkscape:window-maximized="1"
   inkscape:current-layer="Layer_1" />
<circle
   style="fill:#FFD15D;"
   cx="256"
   cy="256"
   r="256"
   id="circle1" />







<path
   fill="#808080"
   d="m 316.23255,403.58825 38.68916,38.7296 H 146.96746 q -15.95928,0 -27.32422,-11.37681 -11.36495,-11.37683 -11.36495,-27.35279 V 93.75141 q 0,-15.975966 11.36495,-27.352787 11.36494,-11.376822 27.32422,-11.376822 H 321.06869 L 417.7916,171.21061 v 232.37764 q 0,9.68241 -4.11073,17.67038 -4.11072,7.98799 -11.36495,13.31331 L 301.72411,334.8432 q -8.22145,5.32532 -17.89374,7.98799 -9.67229,2.66265 -20.79542,2.66265 -31.91856,0 -54.64845,-22.75365 -22.72988,-22.75364 -22.72988,-54.70556 0,-31.95192 22.72988,-54.70557 22.72989,-22.75364 54.64845,-22.75364 31.91856,0 54.64844,22.75364 22.72988,22.75365 22.72988,54.70557 0,11.13475 -2.65988,20.81716 -2.65988,9.68239 -7.97964,17.91244 l 49.32869,50.3485 V 184.76598 L 302.69134,93.75141 H 146.96746 v 309.83684 z m -53.1976,-96.82402 q 15.95928,0 27.32421,-11.37681 11.36495,-11.37683 11.36495,-27.35279 0,-15.97596 -11.36495,-27.35277 -11.36493,-11.37684 -27.32421,-11.37684 -15.95928,0 -27.32423,11.37684 -11.36494,11.37681 -11.36494,27.35277 0,15.97596 11.36494,27.35279 11.36495,11.37681 27.32423,11.37681 z m 0,-38.7296 z m 0,0 z"
   id="path1"
   style="stroke-width:0.483867" /><path
   style="fill:#4d4d4d;stroke-width:1.26382"
   d="m 211.67386,687.77407 c -21.07259,-7.28673 -37.38925,-26.3537 -40.96968,-47.87547 -1.0439,-6.2748 -1.3368,-76.16249 -1.07693,-256.96021 l 0.35695,-248.34123 2.71298,-7.08519 c 8.75658,-22.86854 27.42583,-37.607705 51.07998,-40.327073 6.27033,-0.72086 65.58209,-1.199487 143.99535,-1.161996 l 133.33334,0.06375 75.51342,90.796009 75.51343,90.796 v 184.58188 c 0,131.94237 -0.40556,186.49181 -1.42213,191.27915 -0.78218,3.6835 -3.10156,10.03936 -5.15418,14.12413 -3.78977,7.54168 -14.09065,19.74534 -16.66667,19.74534 -0.77666,0 -27.00215,-25.62914 -58.27888,-56.95365 C 539.33412,589.131 504.22234,554.377 492.58467,543.22439 l -21.15941,-20.27747 -10.43617,5.1197 c -33.80164,16.58214 -77.67391,14.36105 -111.16346,-5.62781 -20.38229,-12.16556 -41.07896,-36.03039 -50.15542,-57.83303 -6.73766,-16.18459 -8.21809,-24.56007 -8.18041,-46.28035 0.0393,-22.65105 2.15077,-32.73242 10.52422,-50.24885 6.40792,-13.40476 11.02779,-20.04428 21.94142,-31.53349 22.16462,-23.3336 48.26938,-35.81189 79.12662,-37.82324 39.52715,-2.57647 76.64136,13.95566 101.73244,45.31564 19.55537,24.44119 26.97813,47.84935 25.6476,80.88133 -0.77811,19.31728 -3.3583,29.9597 -10.90796,44.99155 l -4.87805,9.71248 38.98164,39.81043 38.98163,39.81043 0.0468,-135.60492 0.0468,-135.60492 -58.56468,-69.76633 c -32.21056,-38.37148 -59.42869,-70.4801 -60.48473,-71.35249 -1.51672,-1.25296 -27.37737,-1.51844 -123.10988,-1.26382 l -121.18984,0.32233 -0.31919,242.33808 -0.31919,242.33807 h 132.39878 132.39879 l 29.67967,29.69984 29.67967,29.69984 -167.44647,-0.0413 C 229.93443,689.96779 217.55822,689.80882 211.6738,687.77403 Z M 423.72172,478.39585 c 17.9772,-3.80945 34.90289,-17.3578 42.97462,-34.3995 3.94643,-8.33203 4.07775,-9.14055 4.07775,-25.10455 v -16.49525 l -4.88174,-9.87755 c -10.72894,-21.7085 -31.43233,-34.77497 -55.20028,-34.83839 -27.45069,-0.0732 -53.4309,20.89049 -59.17978,47.75284 -4.49944,21.02418 1.57341,41.51055 16.73955,56.46984 9.13286,9.00828 18.04148,14.0728 28.90602,16.43294 10.34653,2.24762 16.17674,2.2607 26.56386,0.0596 z"
   id="path2"
   transform="scale(0.64)" /></svg>
