<?xml version="1.0" encoding="iso-8859-1"?>
<!-- Uploaded to: SVG Repo, www.svgrepo.com, Generator: SVG Repo Mixer Tools -->
<!DOCTYPE svg PUBLIC "-//W3C//DTD SVG 1.1//EN" "http://www.w3.org/Graphics/SVG/1.1/DTD/svg11.dtd">
<svg height="800px" width="800px" version="1.1" id="Capa_1" xmlns="http://www.w3.org/2000/svg" xmlns:xlink="http://www.w3.org/1999/xlink" 
	 viewBox="0 0 135.001 135.001" xml:space="preserve">
<g>
	<circle style="fill:#FEC820;" cx="67.501" cy="67.501" r="67.501"/>
	<g>
		<g>
			<g>
				<polygon style="fill:#4E5156;" points="48.04,58.345 46.528,57.014 67.257,33.47 86.999,57.033 85.455,58.327 67.219,36.561 
									"/>
			</g>
			<g>
				<g>
					<circle style="fill:#FF6F00;" cx="67.238" cy="35.016" r="2.854"/>
				</g>
			</g>
			<g>
				<g>
					<path style="fill:#FF7F00;" d="M67.237,32.163c-0.009,0-0.018,0.003-0.027,0.003v5.701c0.01,0,0.019,0.003,0.027,0.003
						c1.576,0,2.854-1.277,2.854-2.853C70.092,33.44,68.813,32.163,67.237,32.163z"/>
				</g>
			</g>
		</g>
		<g>
			<g>
				<path style="fill:#2C9BD0;" d="M107.075,79.997c0,6.706-4.28,12.145-9.562,12.145H36.962c-5.281,0-9.561-5.438-9.561-12.145
					V67.808c0-6.707,4.28-12.144,9.561-12.144h60.552c5.281,0,9.562,5.437,9.562,12.144V79.997z"/>
				<path style="fill:#2EBCEE;" d="M104.586,79.293c0,5.957-4.014,10.788-8.964,10.788H38.854c-4.95,0-8.964-4.831-8.964-10.788
					V68.467c0-5.958,4.014-10.788,8.964-10.788h56.769c4.95,0,8.964,4.83,8.964,10.788V79.293z"/>
			</g>
			<g>
				<g>
					<path style="fill:#208EC9;" d="M67.46,55.665H36.962c-5.281,0-9.561,5.437-9.561,12.144v12.188
						c0,6.706,4.28,12.145,9.561,12.145H67.46V55.665z"/>
				</g>
				<g>
					<path style="fill:#22B2EB;" d="M67.46,57.679H38.854c-4.95,0-8.964,4.83-8.964,10.788v10.825
						c0,5.957,4.014,10.788,8.964,10.788H67.46V57.679z"/>
				</g>
			</g>
			<g>
				<path style="fill:#FEFEFE;" d="M48.628,78.103c0,1.49-0.637,2.665-1.912,3.522c-1.274,0.858-3.047,1.287-5.319,1.287
					c-2.093,0-3.944-0.331-5.554-0.993v-3.252c1.323,0.497,2.443,0.847,3.36,1.05c0.917,0.203,1.755,0.305,2.515,0.305
					c0.913,0,1.612-0.147,2.1-0.44s0.731-0.73,0.731-1.31c0-0.324-0.107-0.611-0.322-0.864c-0.215-0.252-0.53-0.495-0.946-0.728
					s-1.263-0.606-2.542-1.118c-1.199-0.474-2.098-0.93-2.697-1.366s-1.078-0.945-1.435-1.524c-0.358-0.58-0.537-1.257-0.537-2.032
					c0-1.46,0.588-2.608,1.764-3.443c1.176-0.835,2.801-1.253,4.876-1.253c1.02,0,1.992,0.102,2.918,0.305
					c0.926,0.203,1.894,0.489,2.904,0.858l-1.341,2.721c-1.046-0.361-1.912-0.613-2.596-0.756c-0.685-0.143-1.357-0.214-2.019-0.214
					c-0.787,0-1.391,0.154-1.811,0.463c-0.421,0.309-0.631,0.711-0.631,1.208c0,0.309,0.085,0.578,0.255,0.807
					c0.17,0.23,0.44,0.452,0.812,0.666c0.371,0.215,1.25,0.601,2.636,1.158c1.833,0.737,3.09,1.477,3.77,2.218
					C48.288,76.118,48.628,77.026,48.628,78.103z"/>
				<path style="fill:#FEFEFE;" d="M64.19,82.687l-1.422-3.929h-7.15l-1.422,3.929h-4.48l6.922-16.574h5.084l6.949,16.574H64.19z
					 M61.775,75.822c-1.314-3.56-2.055-5.573-2.22-6.04s-0.284-0.835-0.355-1.106c-0.295,0.963-1.14,3.346-2.535,7.146H61.775z"/>
				<path style="fill:#FEFEFE;" d="M71.139,82.687V66.18h4.159v13.616h7.956v2.89H71.139z"/>
				<path style="fill:#FEFEFE;" d="M97.956,82.687H86.66V66.18h11.296v2.868h-7.137v3.624h6.641v2.868h-6.641v4.257h7.137V82.687z"
					/>
			</g>
		</g>
	</g>
</g>
</svg>