<?xml version="1.0" encoding="iso-8859-1"?>
<!-- Uploaded to: SVG Repo, www.svgrepo.com, Generator: SVG Repo Mixer Tools -->
<svg version="1.1" id="Layer_1" xmlns="http://www.w3.org/2000/svg" xmlns:xlink="http://www.w3.org/1999/xlink" 
	 viewBox="0 0 512 512" xml:space="preserve">
<circle style="fill:#EFC84A;" cx="256" cy="256" r="256"/>
<path style="opacity:0.1;enable-background:new    ;" d="M511.739,266.405L358.267,112.933c-2.304-2.304-5.429-3.6-8.693-3.6h-9.669
	H172.096h-50.469c-6.789,0-12.293,5.504-12.293,12.293v10.667v247.419v10.667c0,3.589,1.568,6.795,4.021,9.04l0,0l110.507,110.507
	C234.395,511.243,245.104,512,256,512C393.893,512,506.272,402.96,511.739,266.405z"/>
<path style="fill:#2F4859;" d="M390.373,392H121.627c-6.789,0-12.293-5.504-12.293-12.293v10.667
	c0,6.789,5.504,12.293,12.293,12.293h268.752c6.789,0,12.293-5.504,12.293-12.293v-10.667C402.667,386.496,397.163,392,390.373,392z
	"/>
<path style="fill:#64798A;" d="M399.067,153.733l-40.8-40.8c-2.304-2.304-5.429-3.6-8.693-3.6H121.627
	c-6.789,0-12.293,5.504-12.293,12.293v10.667v247.419c0,6.789,5.504,12.293,12.293,12.293h268.752
	c6.789,0,12.293-5.504,12.293-12.293V173.093v-10.667C402.667,159.163,401.371,156.037,399.067,153.733z"/>
<rect x="160.427" y="264.869" style="fill:#FFFFFF;" width="191.115" height="127.131"/>
<g>
	<rect x="177.28" y="285.653" style="fill:#E1E6E9;" width="157.408" height="8"/>
	<rect x="177.28" y="311.52" style="fill:#E1E6E9;" width="157.408" height="8"/>
	<rect x="177.28" y="337.387" style="fill:#E1E6E9;" width="157.408" height="8"/>
	<rect x="177.28" y="363.2" style="fill:#E1E6E9;" width="157.408" height="8"/>
</g>
<path style="fill:#3A556A;" d="M172.096,120v87.712c0,5.275,4.277,9.552,9.552,9.552h148.704c5.275,0,9.552-4.277,9.552-9.552V120
	H172.096z M315.835,200.208h-23.904v-63.152h23.904V200.208z"/>
<path style="fill:#E1E6E9;" d="M172.096,109.333v87.712c0,5.275,4.277,9.552,9.552,9.552h148.704c5.275,0,9.552-4.277,9.552-9.552
	v-87.712H172.096z M315.835,189.541h-23.904v-63.152h23.904V189.541z"/>
</svg>