<?xml version="1.0" encoding="iso-8859-1"?>
<!-- Uploaded to: SVG Repo, www.svgrepo.com, Generator: SVG Repo Mixer Tools -->
<svg version="1.1" id="Layer_1" xmlns="http://www.w3.org/2000/svg" xmlns:xlink="http://www.w3.org/1999/xlink" 
	 viewBox="0 0 512 512" xml:space="preserve">
<circle style="fill:#263A7A;" cx="256" cy="256" r="256"/>
<path style="fill:#121149;" d="M397.155,151.028l-109.837,9.295l-159.973,228.6l123.011,123.004
	c1.877,0.041,3.756,0.072,5.644,0.072c138.628,0,251.504-110.192,255.855-247.763L397.155,151.028z"/>
<rect x="199.111" y="166.788" style="fill:#9BDADD;" width="113.778" height="36.202"/>
<rect x="257.155" y="166.788" style="fill:#38C6D9;" width="55.734" height="36.202"/>
<path style="fill:#7DCACC;" d="M362.539,398.222H149.461c-18.834,0-33.299-16.68-30.636-35.325l19.603-137.216
	c2.177-15.246,15.236-26.571,30.636-26.571h173.873c15.401,0,28.458,11.324,30.635,26.571l19.603,137.216
	C395.84,381.542,381.373,398.222,362.539,398.222z"/>
<path style="fill:#53A5A5;" d="M393.176,362.898l-19.603-137.216c-2.177-15.246-15.236-26.571-30.635-26.571h-85.787v199.111
	h105.389C381.373,398.222,395.84,381.542,393.176,362.898z"/>
<path style="fill:#FFFFFF;" d="M341.333,332.714c0-47.128-38.205-85.333-85.333-85.333s-85.333,38.205-85.333,85.333
	c0,13.283,3.036,25.855,8.451,37.064h153.767C338.298,358.569,341.333,345.996,341.333,332.714z"/>
<path style="fill:#E0E0E0;" d="M341.333,332.714c0-46.744-37.588-84.687-84.184-85.304v122.368h75.733
	C338.298,358.569,341.333,345.996,341.333,332.714z"/>
<path style="fill:#FFFFFF;" d="M128,170.667h256c7.854,0,14.222-6.368,14.222-14.222l0,0c0-7.854-6.368-14.222-14.222-14.222H128
	c-7.854,0-14.222,6.368-14.222,14.222l0,0C113.778,164.299,120.146,170.667,128,170.667z"/>
<path style="fill:#E0E0E0;" d="M384,142.222H257.15v28.444H384c7.854,0,14.222-6.368,14.222-14.222S391.854,142.222,384,142.222z"/>
<path style="fill:#366695;" d="M252.978,350.817c-0.812,0-1.634-0.191-2.405-0.598c-2.527-1.329-3.498-4.456-2.167-6.985
	l34.478-65.508c1.327-2.529,4.453-3.505,6.985-2.167c2.527,1.329,3.498,4.456,2.167,6.985l-34.478,65.508
	C256.634,349.811,254.836,350.817,252.978,350.817z"/>
</svg>